<?xml version="1.0" standalone="no"?>
<!DOCTYPE svg PUBLIC "-//W3C//DTD SVG 20010904//EN"
 "http://www.w3.org/TR/2001/REC-SVG-20010904/DTD/svg10.dtd">
<svg version="1.0" xmlns="http://www.w3.org/2000/svg"
 width="64.000000pt" height="64.000000pt" viewBox="0 0 64.000000 64.000000"
 preserveAspectRatio="xMidYMid meet">

<g transform="translate(0.000000,64.000000) scale(0.100000,-0.100000)"
fill="#000000" stroke="none">
<path d="M17 622 c-24 -26 -25 -233 -1 -256 23 -24 345 -24 368 0 13 12 16 39
16 128 0 153 9 146 -202 146 -147 0 -167 -2 -181 -18z m333 -127 l0 -95 -150
0 -150 0 0 95 0 95 150 0 150 0 0 -95z"/>
<path d="M474 626 c-16 -12 -19 -29 -22 -121 -5 -141 3 -155 93 -155 91 0 95
6 95 144 0 97 -3 115 -18 129 -24 21 -120 23 -148 3z m116 -131 l0 -95 -40 0
-40 0 0 95 0 95 40 0 40 0 0 -95z"/>
<path d="M16 274 c-13 -12 -16 -39 -16 -128 0 -136 6 -146 91 -146 87 0 93 9
97 135 5 141 -3 155 -93 155 -44 0 -68 -5 -79 -16z m114 -129 l0 -95 -40 0
-40 0 0 95 0 95 40 0 40 0 0 -95z"/>
<path d="M256 274 c-13 -12 -16 -39 -16 -128 0 -153 -9 -146 202 -146 207 0
198 -7 198 148 0 87 -3 114 -16 126 -23 24 -345 24 -368 0z m334 -129 l0 -95
-150 0 -150 0 0 95 0 95 150 0 150 0 0 -95z"/>
</g>
</svg>
